<?xml version="1.0" encoding="UTF-8" standalone="no" ?>
<!DOCTYPE svg PUBLIC "-//W3C//DTD SVG 1.1//EN" "http://www.w3.org/Graphics/SVG/1.1/DTD/svg11.dtd">
<svg xmlns="http://www.w3.org/2000/svg" xmlns:xlink="http://www.w3.org/1999/xlink" version="1.1" width="1080" height="1080" viewBox="0 0 1080 1080" xml:space="preserve">
<desc>Created with Fabric.js 5.2.4</desc>
<defs>
</defs>
<g transform="matrix(1 0 0 1 540 540)" id="9e19a2b8-bd7c-41e5-ade6-f4f71265ebfc"  >
<rect style="stroke: none; stroke-width: 1; stroke-dasharray: none; stroke-linecap: butt; stroke-dashoffset: 0; stroke-linejoin: miter; stroke-miterlimit: 4; fill: rgb(255,255,255); fill-rule: nonzero; opacity: 1; visibility: hidden;" vector-effect="non-scaling-stroke"  x="-540" y="-540" rx="0" ry="0" width="1080" height="1080" />
</g>
<g transform="matrix(1 0 0 1 540 540)" id="16117f35-2020-42cf-ab70-6255c396957a"  >
</g>
<g transform="matrix(3.09 0 0 3.09 540 540)"  >
<g style=""   >
		<g transform="matrix(1 0 0 1 -63.78 -0.36)"  >
<path style="stroke: none; stroke-width: 1; stroke-dasharray: none; stroke-linecap: butt; stroke-dashoffset: 0; stroke-linejoin: miter; stroke-miterlimit: 4; fill: #551a8b; fill-rule: evenodd; opacity: 1;" vector-effect="non-scaling-stroke"  transform=" translate(-111.22, -71.64)" d="M 147.617 58.488 C 150.06699999999998 45.818 151.10899999999998 34.869 151.10899999999998 28.569 C 151.109 4.956 140.365 0 131.353 0 C 112.209 0 85.15800000000002 22.141 48.656000000000006 67.69 C 22.580000000000005 100.227 1.2240000000000038 133.20999999999998 1.0120000000000076 133.538 C 0.10276449832430101 134.94453714875607 -0.21019036450398865 136.65477116258947 0.14204164822806398 138.29214361794132 C 0.4942736609601166 139.9295160732932 1.4828117068159976 141.3597725748117 2.890000000000008 142.268 C 4.29677532816622 143.17646542195757 6.006862399411597 143.48876962034473 7.64393640605705 143.13618637684678 C 9.281010412702503 142.78360313334886 10.710921181117286 141.7950249129018 11.619000000000005 140.388 C 43.522000000000006 90.993 104.239 12.628 131.353 12.628 C 133.48600000000002 12.628 138.48000000000002 12.628 138.48000000000002 28.569000000000003 C 138.48000000000002 34.79600000000001 137.34000000000003 45.882000000000005 134.745 58.526 C 134.745 58.526 142.088 58.279 147.61700000000002 58.48800000000001 M 222.43 46.512 C 222.43 51.998 217.982 56.446 212.495 56.446 C 207.00900000000001 56.446 202.562 51.998 202.562 46.512 C 202.562 41.026 207.00900000000001 36.578 212.495 36.578 C 217.982 36.578 222.429 41.026 222.429 46.512" stroke-linecap="round" />
</g>
		<g transform="matrix(1 0 0 1 -16.24 32.39)"  >
<path style="stroke: none; stroke-width: 1; stroke-dasharray: none; stroke-linecap: butt; stroke-dashoffset: 0; stroke-linejoin: miter; stroke-miterlimit: 4; fill: #551a8b; fill-rule: evenodd; opacity: 1;" vector-effect="non-scaling-stroke"  transform=" translate(-158.76, -104.39)" d="M 251.376 92.738 C 247.93971615079954 97.5501961341268 244.1363733490084 102.08940017947822 240 106.315 C 224.67 122.005 206.875 131.371 192.4 131.371 C 184.947 131.371 181.168 128.185 181.168 121.90100000000001 C 181.168 115.25600000000001 184.81300000000002 102.60300000000001 202.175 80.06200000000001 C 203.52814614600945 78.3039708355628 203.85990294352686 75.964971537734 203.049 73.9 C 202.23688255723965 71.83578026042353 200.40171406130884 70.34866750612012 198.214 69.982 L 198.209 69.987 L 198.214 69.955 C 155.506 62.806 98.435 59.5 69.084 84.343 L 69.084 84.37100000000001 C 54.452000000000005 96.757 53.315000000000005 110.61300000000001 53.315000000000005 114.56400000000001 C 53.315000000000005 131.335 66.09 143.98000000000002 83.03 143.98000000000002 C 106.05 143.98000000000002 124.94200000000001 126.63400000000001 137.665 93.82000000000002 C 138.95402504210665 90.47389064510426 140.1418977566732 87.08968730220106 141.227 83.67200000000003 C 136.55700000000002 83.68000000000002 132.064 83.83900000000003 127.784 84.14300000000003 C 119.24600000000001 108.70500000000003 105.01400000000001 131.35100000000003 83.03 131.35100000000003 C 71.813 131.35100000000003 65.944 122.90700000000002 65.944 114.56400000000002 C 65.944 109.25200000000002 68.912 101.06200000000003 77.244 94.00900000000001 L 77.244 93.98200000000001 C 90.721 82.574 120.5 71.41 185.925 80.832 C 174.251 97.49199999999999 168.54000000000002 111.00299999999999 168.54000000000002 121.90199999999999 C 168.54000000000002 138.213 181.394 144 192.40000000000003 144 C 210.47000000000003 144 231.11100000000005 133.481 249.03300000000004 115.14099999999999 C 254.89600000000004 109.14099999999999 259.99700000000007 102.776 264.19800000000004 96.34599999999999 C 255.95800000000003 95.88099999999999 251.37600000000003 92.73799999999999 251.37600000000003 92.73799999999999" stroke-linecap="round" />
</g>
		<g transform="matrix(1 0 0 1 118.34 18.25)"  >
<path style="stroke: none; stroke-width: 1; stroke-dasharray: none; stroke-linecap: butt; stroke-dashoffset: 0; stroke-linejoin: miter; stroke-miterlimit: 4; fill: #551a8b; fill-rule: evenodd; opacity: 1;" vector-effect="non-scaling-stroke"  transform=" translate(-293.34, -90.25)" d="M 348.148 112.738 C 347.04204643982814 111.48052713305006 345.4817850457926 110.71399725933075 343.8105748303342 110.60709681910953 C 342.1393646148757 110.5001963788883 340.494155311806 111.06168548306997 339.237 112.168 C 325.37600000000003 124.35900000000001 311.107 131.351 300.09200000000004 131.351 C 293.552 131.351 290.237 127.928 290.237 121.176 C 290.237 113.879 294.151 100.099 312.79200000000003 75.898 C 314.6842150791905 73.43063905518689 314.49912777596813 69.95311844722099 312.3556995343798 67.70055028819306 C 310.2122712927915 65.44798212916511 306.74821973925003 65.09055560098297 304.19000000000005 66.858 L 304.1890000000001 66.85900000000001 L 304.1890000000001 66.85700000000001 C 294.7850000000001 73.38300000000001 281.0330000000001 77.76700000000001 269.9680000000001 77.76700000000001 C 255.96100000000007 77.76700000000001 249.58000000000007 69.251 249.58000000000007 61.33700000000001 C 249.58000000000007 51.70200000000001 254.55800000000008 49.15700000000001 257.19000000000005 49.15700000000001 C 263.95700000000005 49.15700000000001 264.65700000000004 56.66800000000001 264.71000000000004 58.97000000000001 C 264.78900000000004 62.42200000000001 264.15900000000005 66.26100000000001 262.92800000000005 70.32300000000001 C 262.92800000000005 70.32300000000001 269.047 72.47600000000001 275.80400000000003 71.021 C 276.88700000000006 66.703 277.42400000000004 62.551 277.334 58.678 C 277.033 45.635999999999996 268.75 36.528 257.19100000000003 36.528 C 247.13300000000004 36.528 236.95100000000002 45.05 236.95100000000002 61.337999999999994 C 236.95100000000002 70.15299999999999 240.78600000000003 77.948 247.747 83.28299999999999 C 253.73100000000002 87.86999999999999 261.623 90.39499999999998 269.967 90.39499999999998 C 276.17699999999996 90.39499999999998 282.929 89.32499999999999 289.531 87.40199999999999 L 289.53000000000003 87.40299999999999 C 281.607 100.613 277.60900000000004 111.92299999999999 277.60900000000004 121.17599999999999 C 277.60900000000004 136.92899999999997 288.901 143.98 300.09200000000004 143.98 C 319.31800000000004 143.98 338.095 129.98999999999998 347.57800000000003 121.64999999999999 C 348.8360087440763 120.54416217229296 349.6029067248441 118.9836562958091 349.70981602781353 117.31211996587227 C 349.816725330783 115.64058363593543 349.2548787443825 113.99509297452272 348.148 112.73799999999999" stroke-linecap="round" />
</g>
</g>
</g>
</svg>